<svg width="65" height="56" viewBox="0 0 65 56" fill="none" xmlns="http://www.w3.org/2000/svg">
  <path d="M18.154 14.003c1.478.613 2.956 1.226 4.663 1.93-.11-2.28-.43-4.393.939-6.42.143 1.981-.035 3.774.475 5.349.584 1.81 1.707 3.465 2.738 5.097.98 1.564 2.25 2.944 3.196 4.525.945 1.575 1.638 3.299 2.617 5.32.435-1.036.676-1.918 1.134-2.668 1.512-2.457 2.938-5 4.714-7.257 2.216-2.823 3.31-5.842 2.875-9.404-.03-.23 0-.47 0-.699.143-.046.292-.086.435-.132.28.968.676 1.913.807 2.899.144 1.053.035 2.136.035 3.361 1.638-.687 3.098-1.294 4.553-1.901.092.155.183.31.275.47-6.518 3.442-10.624 8.722-12.554 15.664l.338.286c1.002-.905 1.918-1.936 3.03-2.686 1.723-1.163 3.556-2.188 5.389-3.179 2.932-1.586 5.538-3.493 6.998-6.815.344 1.185-.148 2.766-1.076 4.072-.224.31-.315.716-.464 1.077.39.126.773.315 1.174.372 1.214.178 2.44.303 3.66.716-5.9.091-11.134 1.684-15.286 5.996-1.856 1.925-2.876 3.712-2.973 5.075.613-.384 1.111-.688 1.592-1.003 2.76-1.798 5.768-2.697 9.066-2.417 2.956.253 5.911.562 9.221.883-.761.32-1.242.526-2.302.973.997.538 1.764.95 2.532 1.363-.132.126-.258.252-.39.378-1.85-.664-3.648-1.558-5.555-1.953-4.393-.899-8.626-.48-11.913 2.973-4.147 4.358-3.757 9.719.057 14.14.43.493 1.34.71 2.056.79 3.883.43 7.812.573 11.655 1.21 3.689.606 7.297 1.694 10.94 2.582.16.04.286.23.652.533-20.675-2.045-41.087-2.016-61.849.04 1.003-.481 1.707-.894 2.463-1.157.802-.28 1.661-.412 2.491-.607 5.619-1.335 11.3-2.446 17.08-2.394 3.19.023 4.673-1.65 5.727-4.164 3.16-7.531-2.881-14.043-9.473-14.295-3.23-.126-6.237.532-9.078 2.039-.31.16-.653.257-1.128.143.6-.561 1.202-1.128 1.93-1.804-.647-.252-1.157-.447-1.667-.642.017-.108.04-.223.057-.332 3.866-.223 7.738-.578 11.604-.613 2.422-.022 4.593 1.111 6.58 2.498.413.292.87.52 1.432.572-3.608-7.611-9.965-10.647-18.167-10.601.012-.172.018-.344.029-.515 1.168-.138 2.342-.252 3.51-.413.396-.057.78-.217 1.17-.332-.138-.372-.264-.75-.425-1.111-.532-1.226-1.082-2.451-1.626-3.671l.406-.235c.144.132.35.229.424.395 1.3 2.75 3.5 4.57 6.146 5.894 3.321 1.66 6.523 3.465 9.1 6.305-.074-2.4-1.082-4.473-2.285-6.369-1.266-1.993-2.703-3.928-4.376-5.584-1.626-1.609-3.636-2.829-5.475-4.22.029-.11.057-.218.092-.321l.005-.006Z" fill="#204D38"/>
  <path d="M34.688 20.51c-.452 1.07-.796 2.038-1.266 2.937-.326.63-.784.693-1.328.075-1.42-1.627-1.427-4.565.131-6.083.19-.189 1.037-.103 1.146.092.515.928.876 1.936 1.323 2.984l-.006-.006ZM26.463 37.817c-2.033 1.844-5.773.928-6.895-1.564 1.987-1.78 5.017-1.122 6.895 1.564ZM39.121 37.811c1.587-2.611 4.433-3.282 6.833-1.66-.773 2.313-4.834 3.636-6.833 1.66ZM22.832 21.73c-2.52.463-4.387-.723-4.782-2.91-.155-.854.143-1.157.98-1.066 2.221.241 3.562 1.604 3.808 3.975h-.006ZM38.457 11.964c1.18 2.096.578 4.444-1.386 5.4-.258.127-1.002-.165-1.123-.44-.847-1.959.32-4.25 2.509-4.96ZM42.798 29.484c.567-2.205 3.03-3.528 4.977-2.618.218.104.435.619.367.86-.567 2.039-3.528 2.99-5.344 1.758ZM48.44 44.191c-2.137.018-3.763-1.053-4.439-2.554-.395-.87-.31-1.34.802-1.329 1.69.018 3.717 1.34 4.158 2.938.086.304-.418.768-.521.94v.005ZM42.735 21.723c-.31-1.884 1.483-3.848 3.929-3.946.263-.011.847.676.785.91-.579 2.315-2.48 3.798-4.714 3.03v.006ZM22.723 29.45c-1.838 1.242-4.776.372-5.35-1.593-.08-.28.31-.98.59-1.048 2.171-.533 3.895.441 4.76 2.64ZM29.172 17.571c-2.188-.458-3.528-3.081-2.514-5.08.114-.23.922-.372 1.197-.206 1.85 1.105 2.308 3.081 1.317 5.286ZM21.629 40.469c.189 1.357-.647 2.308-1.615 2.863-.916.533-2.12.579-3.19.837-.069-.356-.287-.762-.184-1.054.705-1.97 2.59-2.973 4.989-2.646ZM34.763 10.824c-.756 1.106-1.226 2.137-2.005 2.807-.446.383-1.454-1.329-1.46-2.726v-.144c.034-1.386 1.042-3.11 1.449-2.754.773.681 1.248 1.7 2.016 2.812v.005ZM27.512 40.95c.189 2.823-1.925 4.805-4.158 4.026.555-2.675 1.74-3.843 4.158-4.026ZM41.956 45.136c-2.577.15-4.266-1.632-3.997-4.106 2.256-.166 4.055 1.632 3.997 4.106ZM12.156 37.617c1.684-1.255 3.42-1.33 4.908-.224.281.206.453.556.676.836-.269.212-.515.493-.819.625-2.027.882-3.562.498-4.765-1.237ZM53.273 37.657c-.664 1.7-3.62 2.147-5.2 1.03-.16-.108-.063-.973.178-1.19 1.397-1.26 3.442-1.152 5.022.16ZM54.859 28.424c-.745 1.69-2.898 2.549-4.485 1.718-.212-.108-.366-.824-.218-1.053 1.02-1.575 3.162-1.845 4.708-.665h-.005ZM10.535 28.545c1.518-1.29 3.775-1.043 4.765.458.407.618.361 1.02-.44 1.243-1.713.48-3.236-.075-4.325-1.707v.006Z" fill="#204D38"/>
  <path d="M4.89 47.76A31.358 31.358 0 0 1 1 32.581c0-17.397 14.103-31.5 31.5-31.5S64 15.185 64 32.582c0 5.503-1.41 10.676-3.89 15.177" stroke="#204D38" stroke-width="1.145"/>
</svg>
