<svg xmlns="http://www.w3.org/2000/svg">
    <symbol id="icon-panel" viewBox="0 0 398 305">
        <path
            d="M388.882 263.375C388.882 265.723 387.849 268.138 385.637 270.615C383.416 273.101 380.071 275.57 375.639 277.97C366.777 282.768 353.855 287.137 337.76 290.823C305.593 298.19 261.08 302.76 211.861 302.76C162.643 302.76 118.13 298.19 85.9632 290.823C69.8677 287.137 56.9457 282.768 48.0841 277.97C43.6524 275.57 40.3073 273.101 38.0863 270.615C35.8734 268.138 34.8408 265.723 34.8408 263.375C34.8408 261.026 35.8734 258.611 38.0863 256.134C40.3073 253.648 43.6524 251.179 48.0841 248.779C56.9457 243.981 69.8677 239.613 85.9632 235.926C118.13 228.559 162.643 223.989 211.861 223.989C261.08 223.989 305.593 228.559 337.76 235.926C353.855 239.613 366.777 243.981 375.639 248.779C380.071 251.179 383.416 253.648 385.637 256.134C387.849 258.611 388.882 261.026 388.882 263.375Z"
            stroke="#183722" stroke-width="3" />
        <path
            d="M375.835 275.849C375.835 288.464 300.422 302.285 212.12 302.285C123.819 302.285 47.8401 288.814 47.8401 276.2C47.8401 263.585 123.819 254.604 212.12 254.604C300.422 254.604 375.835 263.235 375.835 275.849Z"
            fill="#183722" />
        <path d="M211 92.0002H191V298H211V92.0002Z" fill="#FDF9ED" stroke="#183722" stroke-width="3.37046"
            stroke-linecap="round" stroke-linejoin="round" />
        <path d="M245 92.0002H211V298H245V92.0002Z" fill="#FDF9ED" stroke="#183722" stroke-width="3.37046"
            stroke-linecap="round" stroke-linejoin="round" />
        <path d="M395.589 170.389H94.4714L10.1424 2.33789H311.226L395.589 170.389Z" fill="#FDF9ED" stroke="#183722"
            stroke-width="3.37046" stroke-linecap="round" stroke-linejoin="round" />
        <path d="M377.086 159.638H102.191L28.6476 13.0898H303.509L377.086 159.638Z" fill="#FDF9ED" stroke="#183722"
            stroke-width="3.37046" stroke-linecap="round" stroke-linejoin="round" />
        <path d="M60.7344 13.0898L134.312 159.638" stroke="#183722" stroke-width="3.37046" stroke-linecap="round"
            stroke-linejoin="round" />
        <path d="M96.2246 13.0898L169.802 159.638" stroke="#183722" stroke-width="3.37046" stroke-linecap="round"
            stroke-linejoin="round" />
        <path d="M131.716 13.0898L205.293 159.638" stroke="#183722" stroke-width="3.37046" stroke-linecap="round"
            stroke-linejoin="round" />
        <path d="M167.207 13.0898L240.784 159.638" stroke="#183722" stroke-width="3.37046" stroke-linecap="round"
            stroke-linejoin="round" />
        <path d="M202.699 13.0898L276.276 159.638" stroke="#183722" stroke-width="3.37046" stroke-linecap="round"
            stroke-linejoin="round" />
        <path d="M238.188 13.0898L311.766 159.638" stroke="#183722" stroke-width="3.37046" stroke-linecap="round"
            stroke-linejoin="round" />
        <path d="M273.681 13.0898L347.258 159.638" stroke="#183722" stroke-width="3.37046" stroke-linecap="round"
            stroke-linejoin="round" />
        <path d="M95.6518 142.111H368.255" stroke="#183722" stroke-width="3.37046" stroke-linecap="round"
            stroke-linejoin="round" />
        <path d="M81.6651 114.237H354.268" stroke="#183722" stroke-width="3.37046" stroke-linecap="round"
            stroke-linejoin="round" />
        <path d="M67.6769 86.3635H340.28" stroke="#183722" stroke-width="3.37046" stroke-linecap="round"
            stroke-linejoin="round" />
        <path d="M53.6892 58.4897H326.326" stroke="#183722" stroke-width="3.37046" stroke-linecap="round"
            stroke-linejoin="round" />
        <path d="M39.7016 30.6497H312.338" stroke="#183722" stroke-width="3.37046" stroke-linecap="round"
            stroke-linejoin="round" />
        <path d="M10.1423 2.33789L2.08691 15.7523L84.7307 183.298L94.4713 170.389L10.1423 2.33789Z" fill="#183722"
            stroke="#183722" stroke-width="3.37046" stroke-linecap="round" stroke-linejoin="round" />
        <path d="M84.7307 183.299H384.5L395.588 170.39H94.4713L84.7307 183.299Z" fill="#183722" stroke="#183722"
            stroke-width="3.37046" stroke-linecap="round" stroke-linejoin="round" />
    </symbol>
    <symbol id="icon-hand" viewBox="0 0 344 305">
        <path
            d="M342.423 264.885C342.423 267.13 341.436 269.443 339.311 271.821C337.178 274.209 333.963 276.583 329.698 278.893C321.17 283.51 308.731 287.716 293.233 291.265C262.26 298.359 219.397 302.76 172 302.76C124.603 302.76 81.7393 298.359 50.7664 291.265C35.2678 287.716 22.8289 283.51 14.3012 278.893C10.0364 276.583 6.82088 274.209 4.68778 271.821C2.56283 269.443 1.57635 267.13 1.57635 264.885C1.57635 262.641 2.56283 260.328 4.68778 257.949C6.82088 255.562 10.0364 253.187 14.3012 250.878C22.8289 246.26 35.2678 242.055 50.7664 238.505C81.7393 231.412 124.603 227.011 172 227.011C219.397 227.011 262.26 231.412 293.233 238.505C308.731 242.055 321.17 246.26 329.698 250.878C333.963 253.187 337.178 255.562 339.311 257.949C341.436 260.328 342.423 262.641 342.423 264.885Z"
            stroke="#183722" stroke-width="3" />
        <path
            d="M329.913 276.899C329.913 289.047 257.287 302.432 172.249 302.432C87.2106 302.432 14.0397 289.385 14.0397 277.237C14.0397 265.089 87.2106 256.439 172.249 256.439C257.287 256.439 329.913 264.751 329.913 276.899Z"
            fill="#183722" />
        <path
            d="M172.782 178.387C172.802 176.378 172.802 174.309 172.066 172.44C171.33 170.57 169.64 168.939 167.631 168.86C166.398 168.82 165.225 169.357 164.21 170.033C160.093 172.718 157.766 177.511 156.971 182.364C156.175 187.197 156.732 192.15 157.289 197.022C157.587 183.955 158.065 170.928 157.925 157.861C157.886 153.884 157.806 149.767 156.175 146.127C154.544 142.487 150.925 139.425 146.947 139.743C139.946 140.3 137.738 149.369 137.4 156.39C136.903 166.493 136.426 176.577 135.928 186.68C136.963 173.056 137.599 159.393 137.818 145.729C137.917 139.822 136.704 132.245 130.936 130.932C127.356 130.117 123.657 132.523 121.807 135.686C119.958 138.848 119.54 142.647 119.222 146.286C118.188 157.742 117.691 177.233 117.611 188.729C118.367 179.54 118.605 162.297 118.426 153.068C118.387 150.523 118.227 147.798 116.736 145.709C113.832 141.692 107.11 142.468 103.749 146.087C97.3245 153.009 99.6316 164.106 99.5719 172.579C99.4924 185.049 96.2505 214.544 95.5345 226.995C95.3953 223.255 97.1455 202.611 97.0063 198.872C96.8671 195.212 96.708 191.473 95.3356 188.072C93.9633 184.671 91.1192 181.628 87.4995 181.072C83.0444 180.375 78.7286 183.657 76.7397 187.734C74.7707 191.792 74.5917 196.465 74.4724 200.98C73.9354 219.198 72.6824 239.743 76.6403 257.583C79.4446 270.193 86.0874 282.484 97.0659 289.286C107.766 295.929 121.052 296.585 133.641 296.167C139.131 295.988 144.719 295.611 149.831 293.582C159.238 289.863 165.801 280.933 168.983 271.326C178.232 243.403 172.504 207.404 172.802 178.387H172.782Z"
            fill="#FDF9ED" stroke="#183722" stroke-width="3" stroke-miterlimit="10" />
        <path
            d="M95.1576 227.293C104.426 227.81 112.819 233.797 117.751 241.673C122.684 249.529 124.454 259.035 124.414 268.304"
            stroke="#183722" stroke-width="3" stroke-linecap="round" stroke-linejoin="round" />
        <path d="M108.642 190.578C125.129 183.637 145.535 187.356 158.522 199.668" stroke="#183722" stroke-width="3"
            stroke-linecap="round" stroke-linejoin="round" />
        <path
            d="M175.07 178.387C175.05 176.378 175.05 174.309 175.786 172.44C176.521 170.57 178.212 168.939 180.221 168.86C181.454 168.82 182.627 169.357 183.642 170.033C187.759 172.718 190.085 177.511 190.881 182.364C191.677 187.197 191.12 192.15 190.563 197.022C190.265 183.955 189.787 170.928 189.926 157.861C189.966 153.884 190.046 149.767 191.677 146.127C193.307 142.487 196.927 139.425 200.905 139.743C207.906 140.3 210.113 149.369 210.452 156.39C210.949 166.493 211.426 176.577 211.923 186.68C210.889 173.056 210.253 159.393 210.034 145.729C209.934 139.822 211.148 132.245 216.915 130.932C220.495 130.117 224.195 132.523 226.044 135.686C227.894 138.848 228.312 142.647 228.63 146.286C229.664 157.742 230.161 177.233 230.241 188.729C229.485 179.54 229.246 162.297 229.425 153.068C229.465 150.523 229.624 147.798 231.116 145.709C234.02 141.692 240.742 142.468 244.103 146.087C250.527 153.009 248.22 164.106 248.28 172.579C248.359 185.049 251.601 214.544 252.317 226.995C252.456 223.255 250.706 202.611 250.845 198.872C250.985 195.212 251.144 191.473 252.516 188.072C253.888 184.671 256.733 181.628 260.352 181.072C264.807 180.375 269.123 183.657 271.112 187.734C273.101 191.811 273.26 196.465 273.379 200.98C273.916 219.198 275.169 239.743 271.211 257.583C268.407 270.193 261.764 282.484 250.786 289.286C240.086 295.929 226.8 296.585 214.21 296.167C208.721 295.988 203.133 295.611 198.021 293.582C188.614 289.863 182.05 280.933 178.868 271.326C169.62 243.403 175.348 207.404 175.05 178.387H175.07Z"
            fill="#FDF9ED" stroke="#183722" stroke-width="3" stroke-miterlimit="10" />
        <path
            d="M252.674 227.293C243.406 227.81 235.013 233.797 230.081 241.673C225.148 249.529 223.378 259.035 223.418 268.304"
            stroke="#183722" stroke-width="3" stroke-linecap="round" stroke-linejoin="round" />
        <path d="M239.191 190.578C222.703 183.637 202.297 187.356 189.31 199.668" stroke="#183722" stroke-width="3"
            stroke-linecap="round" stroke-linejoin="round" />
        <path
            d="M222.682 212.502C222.597 212.903 222.471 213.326 222.302 213.706C221.52 215.629 219.935 217.109 218.392 218.504C200.872 234.312 173.673 233.825 151.588 230.74C139.606 229.07 121.579 226.302 116.169 213.579C113.358 206.965 116.633 199.378 120.628 193.397C132.505 175.581 149.095 158.526 171.454 158.526C197.279 158.526 212.601 181.816 221.329 204.26C222.344 206.88 223.253 209.797 222.682 212.502Z"
            fill="#183722" stroke="#183722" stroke-width="1.98887" stroke-linecap="round" stroke-linejoin="round" />
        <path d="M170.926 69.6271V2.33765C170.926 2.33765 129.187 40.1246 170.926 69.6271Z" stroke="#183722"
            stroke-width="3" stroke-linecap="round" stroke-linejoin="round" />
        <path d="M170.926 69.6271V2.33765C170.926 2.33765 212.665 40.1246 170.926 69.6271Z" stroke="#183722"
            stroke-width="3" stroke-linecap="round" stroke-linejoin="round" />
        <path d="M164.46 115.191L101.355 52.0859C101.355 52.0859 97.635 126.666 164.46 115.191Z" stroke="#183722"
            stroke-width="3" stroke-linecap="round" stroke-linejoin="round" />
        <path d="M164.46 115.191L101.355 52.0859C101.355 52.0859 175.935 48.3664 164.46 115.191Z" stroke="#183722"
            stroke-width="3" stroke-linecap="round" stroke-linejoin="round" />
        <path d="M178.302 125.695L241.407 62.5898C241.407 62.5898 245.127 137.17 178.302 125.695Z" stroke="#183722"
            stroke-width="3" stroke-linecap="round" stroke-linejoin="round" />
        <path d="M178.302 125.695L241.407 62.5898C241.407 62.5898 166.827 58.8703 178.302 125.695Z" stroke="#183722"
            stroke-width="3" stroke-linecap="round" stroke-linejoin="round" />
        <path d="M123.206 73.9382L171.158 121.89" stroke="#183722" stroke-width="3" stroke-linecap="round"
            stroke-linejoin="round" />
        <path d="M206.093 97.925L171.16 132.838" stroke="#183722" stroke-width="3" stroke-linecap="round"
            stroke-linejoin="round" />
        <path d="M171 176L171 70" stroke="#183722" stroke-width="3" stroke-linecap="round" stroke-linejoin="round" />
    </symbol>
    <symbol id="icon-flower" viewBox="0 0 358 304">
        <path
            d="M356.295 262.374C356.295 264.723 355.263 267.138 353.05 269.615C350.829 272.101 347.484 274.57 343.052 276.97C334.191 281.768 321.269 286.136 305.173 289.823C273.006 297.19 228.494 301.76 179.275 301.76C130.056 301.76 85.5434 297.19 53.3765 289.823C37.281 286.136 24.359 281.768 15.4974 276.97C11.0657 274.57 7.72059 272.101 5.49961 269.615C3.28677 267.138 2.25415 264.723 2.25415 262.374C2.25415 260.026 3.28677 257.611 5.49961 255.134C7.72059 252.648 11.0657 250.179 15.4974 247.779C24.359 242.981 37.281 238.612 53.3765 234.926C85.5434 227.559 130.056 222.989 179.275 222.989C228.494 222.989 273.006 227.559 305.173 234.926C321.269 238.612 334.191 242.981 343.052 247.779C347.484 250.179 350.829 252.648 353.05 255.134C355.263 257.611 356.295 260.026 356.295 262.374Z"
            stroke="#183722" stroke-width="3" />
        <path
            d="M343.248 274.849C343.248 287.463 267.835 301.285 179.534 301.285C91.2322 301.285 15.2534 287.814 15.2534 275.2C15.2534 262.585 91.2322 253.604 179.534 253.604C267.835 253.604 343.248 262.235 343.248 274.849Z"
            fill="#183722" />
        <path d="M179.4 85.8413L146.456 56.0505C146.456 56.0505 146.456 93.2193 179.4 85.8413Z" stroke="#183722"
            stroke-width="2.5" stroke-linecap="round" stroke-linejoin="round" />
        <path d="M179.4 85.8415L146.456 56.0507C146.456 56.0507 183.432 52.3403 179.4 85.8415Z" stroke="#183722"
            stroke-width="2.5" stroke-linecap="round" stroke-linejoin="round" />
        <path d="M181.437 126.592L148.494 96.801C148.494 96.801 148.494 133.97 181.437 126.592Z" stroke="#183722"
            stroke-width="2.5" stroke-linecap="round" stroke-linejoin="round" />
        <path d="M181.438 126.592L148.494 96.8012C148.494 96.8012 185.47 93.0908 181.438 126.592Z" stroke="#183722"
            stroke-width="2.5" stroke-linecap="round" stroke-linejoin="round" />
        <path d="M185.534 208.072L152.59 178.281C152.59 178.281 152.59 215.45 185.534 208.072Z" fill="#FDF9ED"
            stroke="#183722" stroke-width="2.5" stroke-linecap="round" stroke-linejoin="round" />
        <path d="M185.534 208.071L152.59 178.281C152.59 178.281 189.566 174.57 185.534 208.071Z" fill="#FDF9ED"
            stroke="#183722" stroke-width="2.5" stroke-linecap="round" stroke-linejoin="round" />
        <path d="M187.571 248.822L154.627 219.031C154.627 219.031 154.627 256.2 187.571 248.822Z" fill="#FDF9ED"
            stroke="#183722" stroke-width="2.5" stroke-linecap="round" stroke-linejoin="round" />
        <path d="M187.571 248.822L154.627 219.031C154.627 219.031 191.603 215.321 187.571 248.822Z" fill="#FDF9ED"
            stroke="#183722" stroke-width="2.5" stroke-linecap="round" stroke-linejoin="round" />
        <path d="M178.563 69.3913L208.354 36.4478C208.354 36.4478 212.064 73.4235 178.563 69.3913Z" stroke="#183722"
            stroke-width="2.5" stroke-linecap="round" stroke-linejoin="round" />
        <path d="M178.563 69.3914L208.354 36.4478C208.354 36.4478 171.185 36.4478 178.563 69.3914Z" stroke="#183722"
            stroke-width="2.5" stroke-linecap="round" stroke-linejoin="round" />
        <path d="M180.622 110.142L210.412 77.1982C210.412 77.1982 214.123 114.174 180.622 110.142Z" stroke="#183722"
            stroke-width="2.5" stroke-linecap="round" stroke-linejoin="round" />
        <path d="M180.621 110.142L210.412 77.1982C210.412 77.1982 173.243 77.1982 180.621 110.142Z" stroke="#183722"
            stroke-width="2.5" stroke-linecap="round" stroke-linejoin="round" />
        <path d="M177.383 45.6914L175.152 1.33765C175.152 1.33765 203.914 24.8657 177.383 45.6914Z" stroke="#183722"
            stroke-width="2.5" stroke-linecap="round" stroke-linejoin="round" />
        <path d="M177.383 45.6914L175.152 1.33765C175.152 1.33765 148.879 27.6325 177.383 45.6914Z" stroke="#183722"
            stroke-width="2.5" stroke-linecap="round" stroke-linejoin="round" />
        <path d="M186.755 232.372L216.546 199.428C216.546 199.428 220.257 236.404 186.755 232.372Z" fill="#FDF9ED"
            stroke="#183722" stroke-width="2.5" stroke-linecap="round" stroke-linejoin="round" />
        <path d="M186.756 232.372L216.546 199.428C216.546 199.428 179.378 199.428 186.756 232.372Z" fill="#FDF9ED"
            stroke="#183722" stroke-width="2.5" stroke-linecap="round" stroke-linejoin="round" />
        <path d="M177.383 45.6914L188.343 264.029" stroke="#183722" stroke-width="2.5" stroke-linecap="round"
            stroke-linejoin="round" />
        <path d="M247.993 165.016H110.508V187.53H247.993V165.016Z" fill="#FDF9ED" stroke="#183722"
            stroke-width="2.89235" stroke-linecap="round" stroke-linejoin="round" />
        <path
            d="M116.534 187.529H241.968V272.353C241.968 286.333 230.626 297.676 216.646 297.676H141.878C127.898 297.676 116.555 286.333 116.555 272.353V187.529H116.534Z"
            fill="#FDF9ED" stroke="#183722" stroke-width="2.89235" stroke-linecap="round" stroke-linejoin="round" />
        <path
            d="M180.194 259.188L173.269 252.262C171.146 250.14 167.694 250.14 165.571 252.262C164.134 253.699 163.684 255.757 164.199 257.601H153.971L161.283 244.929C162.784 242.313 161.904 238.99 159.289 237.489C156.673 235.988 153.349 236.867 151.848 239.483L139.819 260.325C138.854 262.018 138.854 264.098 139.819 265.771C140.784 267.465 142.585 268.494 144.537 268.494H164.22C163.706 270.338 164.134 272.375 165.592 273.833C167.715 275.956 171.167 275.956 173.29 273.833L180.216 266.907C181.202 265.921 181.802 264.549 181.802 263.048C181.802 261.547 181.202 260.174 180.216 259.188H180.194Z"
            fill="#183722" />
        <path
            d="M218.726 261.418L208.906 244.393C210.75 243.922 212.293 242.506 212.83 240.534C213.601 237.618 211.886 234.637 208.97 233.865L199.493 231.335C199.171 231.249 198.828 231.185 198.506 231.164H198.464C198.12 231.142 197.799 231.164 197.477 231.185C197.456 231.185 197.434 231.185 197.413 231.185C197.07 231.228 196.748 231.314 196.427 231.4C196.427 231.4 196.384 231.4 196.362 231.4C195.676 231.635 195.033 232 194.497 232.472C194.497 232.472 194.475 232.493 194.454 232.515C194.197 232.729 193.982 232.986 193.768 233.244C193.768 233.244 193.746 233.286 193.725 233.308C193.532 233.565 193.36 233.844 193.21 234.166C193.21 234.166 193.21 234.187 193.21 234.208C193.06 234.509 192.953 234.83 192.846 235.152L190.316 244.629C189.544 247.545 191.259 250.526 194.175 251.298C196.148 251.834 198.163 251.19 199.493 249.839L204.596 258.695H189.951C186.949 258.695 184.505 261.139 184.505 264.141C184.505 267.143 186.949 269.587 189.951 269.587H214.03C215.981 269.587 217.783 268.558 218.747 266.864C219.712 265.17 219.712 263.091 218.747 261.418H218.726Z"
            fill="#183722" />
        <path
            d="M157.616 232.707C157.702 233.029 157.83 233.351 157.959 233.651C157.959 233.651 157.959 233.694 157.98 233.694C158.13 233.994 158.302 234.273 158.495 234.53C158.495 234.53 158.516 234.573 158.538 234.594C158.752 234.852 158.967 235.109 159.224 235.323C159.224 235.323 159.245 235.345 159.267 235.366C159.803 235.838 160.446 236.202 161.132 236.438C161.154 236.438 161.175 236.438 161.197 236.438C161.518 236.546 161.84 236.61 162.162 236.653C162.183 236.653 162.204 236.653 162.247 236.653C162.569 236.696 162.891 236.696 163.234 236.674C163.234 236.674 163.277 236.674 163.298 236.674C163.62 236.653 163.963 236.588 164.284 236.503L173.74 233.973C176.656 233.201 178.372 230.199 177.6 227.304C177.064 225.332 175.52 223.895 173.676 223.445L178.779 214.589L186.091 227.261C187.592 229.877 190.936 230.756 193.531 229.255C196.147 227.754 197.026 224.41 195.525 221.815L183.496 200.974C182.531 199.28 180.73 198.25 178.779 198.25C176.828 198.25 175.027 199.28 174.062 200.974L164.241 217.998C162.912 216.626 160.896 216.004 158.924 216.54C156.008 217.312 154.292 220.314 155.064 223.209L157.594 232.686L157.616 232.707Z"
            fill="#183722" />
        <path
            d="M219.668 163.943H138.833C149.832 154.916 163.877 149.47 179.229 149.47C194.581 149.47 208.669 154.916 219.668 163.943Z"
            fill="#183722" />
    </symbol>
</svg>