<svg xmlns="http://www.w3.org/2000/svg">
    <symbol id="icon-G" viewBox="0 0 189 203">
        <path
            d="M99.0242 93.0126H188.373V200.118H158.778L155.114 181.234H152.859C138.39 195.702 118.754 202.937 93.9507 202.937C65.7651 202.937 43.1226 193.823 26.0233 175.597C9.11195 157.182 0.65625 133.412 0.65625 104.287C0.65625 74.0343 9.95751 49.137 28.56 29.5949C47.1626 9.86498 71.2143 0 100.715 0C125.143 0 144.873 5.91899 159.905 17.757C174.938 29.5949 183.863 44.7212 186.682 63.1359H146.094C143.088 54.1164 137.639 47.07 129.747 41.9966C121.855 36.9232 112.177 34.3865 100.715 34.3865C81.9249 34.3865 66.8925 40.9632 55.6183 54.1165C44.344 67.0818 38.7069 83.8053 38.7069 104.287C38.7069 123.641 44.0622 139.425 54.7727 151.639C65.4832 163.665 80.1398 169.678 98.7423 169.678C114.15 169.678 126.74 166.295 136.511 159.531C146.47 152.766 151.449 143.089 151.449 130.5V122.044H99.0242V93.0126Z"
            fill="#204D38" />
    </symbol>
    <symbol id="icon-R" viewBox="0 0 150 199">
        <path
            d="M149.966 198.118H110.506L69.3554 121.171H37.2237V198.118H0.864258V0.818359H78.9385C98.4805 0.818359 113.983 6.17363 125.445 16.8842C136.907 27.4068 142.638 41.4057 142.638 58.8808C142.638 72.0341 139.256 83.4963 132.491 93.2673C125.727 102.85 116.425 109.897 104.587 114.407L149.966 198.118ZM37.2237 32.3863V89.6031H74.7106C84.1059 89.6031 91.5281 86.9725 96.9773 81.7112C102.614 76.262 105.433 69.3095 105.433 60.8538C105.433 52.0223 102.708 45.0698 97.2592 39.9964C91.81 34.923 84.2938 32.3863 74.7106 32.3863H37.2237Z"
            fill="#204D38" />
    </symbol>
    <symbol id="icon-O" viewBox="0 0 202 203">
        <path
            d="M101.097 202.937C72.1597 202.937 48.108 193.354 28.9418 174.187C9.77553 154.833 0.192383 130.593 0.192383 101.468C0.192383 72.5311 9.68157 48.3854 28.6599 29.0312C47.8262 9.67707 71.9718 0 101.097 0C130.034 0 154.086 9.67707 173.252 29.0312C192.419 48.3854 202.002 72.5311 202.002 101.468C202.002 130.406 192.419 154.551 173.252 173.905C154.274 193.26 130.222 202.937 101.097 202.937ZM101.379 168.55C119.418 168.55 134.356 162.161 146.194 149.384C158.032 136.606 163.951 120.635 163.951 101.468C163.951 82.3021 157.938 66.3302 145.912 53.5527C134.074 40.7752 119.136 34.3865 101.097 34.3865C83.0582 34.3865 68.0258 40.7752 56 53.5527C44.162 66.3302 38.243 82.3021 38.243 101.468C38.243 120.635 44.162 136.606 56 149.384C68.0258 162.161 83.1522 168.55 101.379 168.55Z"
            fill="#204D38" />
    </symbol>
    <symbol id="icon-W" viewBox="0 0 249 199">
        <path
            d="M212.754 0.818359H248.55L205.708 198.118H164.556L125.66 62.5449H123.405L85.0729 198.118H43.9219L0.797852 0.818359H36.8755L65.9067 143.438H68.1616L105.085 14.9112H144.545L180.904 143.438H183.159L212.754 0.818359Z"
            fill="#204D38" />
    </symbol>
    <symbol id="icon-N" viewBox="0 0 166 199">
        <path
            d="M129.538 0.818359H165.898V198.118H127.847L39.0626 66.2091H36.8077V198.118H0.448242V0.818359H38.4989L127.284 133.573H129.538V0.818359Z"
            fill="#204D38" />
    </symbol>
    <symbol id="icon-E" viewBox="0 0 136 199">
        <path
            d="M36.7091 165.704H135.359V198.118H0.349609V0.818359H132.54V33.2319H36.7091V82.2749H119.293V113.843H36.7091V165.704Z"
            fill="#204D38" />
    </symbol>

    <!-- <symbol id="icon-pict" viewBox="0 0 150 88">
        <path
            d="M288.981 43.1833C288.981 48.3872 285.409 53.6443 278.221 58.6735C271.073 63.674 260.636 68.2359 247.608 72.0909C221.572 79.7953 185.517 84.5811 145.63 84.5811C105.743 84.5811 69.6882 79.7953 43.6517 72.0909C30.6241 68.2359 20.187 63.674 13.0395 58.6735C5.85085 53.6443 2.2791 48.3872 2.2791 43.1833C2.2791 37.9794 5.85085 32.7223 13.0395 27.6931C20.187 22.6926 30.6241 18.1307 43.6517 14.2757C69.6882 6.57129 105.743 1.78545 145.63 1.78545C185.517 1.78545 221.572 6.57129 247.608 14.2757C260.636 18.1307 271.073 22.6926 278.221 27.6931C285.409 32.7223 288.981 37.9794 288.981 43.1833Z"
            stroke="#204D38" stroke-width="2.9" />
        <path
            d="M290.432 44.6827C290.432 59.7043 226.524 87.0226 147.69 87.0226C68.8559 87.0226 5.5 64 2.94824 44.6827C2.94824 29.6612 68.8559 17.4839 147.69 17.4839C226.524 17.4839 290.432 29.6612 290.432 44.6827Z"
            fill="#204D38" />
        <path
            d="M99.2934 31.4341C103.05 19.0163 109.223 15.5519 119.766 22.7906C124.746 26.1947 124.419 45.532 126.339 64.1079C129.855 98.2646 130.197 132.693 130.197 132.693L126.021 134.671C109.334 142.632 89.9089 131.311 88.5052 112.872C87.164 95.2901 86.88 74.6007 90.3756 58.0002C92.5843 47.4528 98.4476 34.2727 99.3162 31.4381L99.2934 31.4341Z"
            fill="#FDF9ED" />
        <path
            d="M127.718 108.942C127.718 108.942 127.007 73.3924 126.34 64.1083C126.34 64.1083 132.706 29.9054 115.637 19.7698C98.3559 9.50316 85.3597 74.8305 88.2907 108.698"
            stroke="#204D38" stroke-width="2.9" stroke-linejoin="round" />
        <path
            d="M127.599 60.1401C130.237 51.4538 134.537 49.0274 141.935 54.0741C145.422 56.4665 145.188 69.99 146.545 83.0142C148.992 106.947 149.249 131.041 149.249 131.041L146.326 132.437C134.636 138.022 121.04 130.089 120.04 117.174C119.101 104.857 118.892 90.3631 121.36 78.7322C122.926 71.3408 127.022 62.1086 127.626 60.1213L127.599 60.1401Z"
            fill="#FDF9ED" />
        <path
            d="M147.478 114.443C147.478 114.443 146.987 89.5333 146.518 83.0341C146.518 83.0341 150.986 59.0799 139.033 51.9724C126.928 44.7914 117.828 90.532 119.885 114.28"
            stroke="#204D38" stroke-width="2.9" stroke-linejoin="round" />
        <path
            d="M82.2329 22.6392C85.989 10.2214 92.1624 6.75695 102.706 13.9957C107.686 17.3998 107.358 36.7371 109.279 55.313C112.794 89.4697 113.136 123.898 113.136 123.898L108.961 125.876C92.2736 133.837 72.8484 122.516 71.4446 104.077C70.1035 86.4952 69.8195 65.8058 73.315 49.2053C75.5238 38.6578 81.3871 25.4777 82.2557 22.6432L82.2329 22.6392Z"
            fill="#FDF9ED" />
        <path
            d="M110.654 100.17C110.654 100.17 109.943 64.6199 109.276 55.3359C109.276 55.3359 115.641 21.133 98.5726 10.9973C81.2915 0.730702 68.2952 66.0581 71.2263 99.9252"
            stroke="#204D38" stroke-width="2.9" stroke-linejoin="round" />
        <path
            d="M115.907 231.228L107.803 226.921L132.962 172.144L219.282 174.097L204.814 250.964L184.375 249.538C170.344 248.559 156.466 246.017 142.999 241.958L139.142 240.796C131.103 238.373 123.321 235.168 115.907 231.228Z"
            fill="#FDF9ED" stroke="#204D38" stroke-width="2.9" />
        <path
            d="M222.677 161.618L222.63 161.739L222.606 161.866L222.606 161.867L222.606 161.867L222.605 161.871L222.601 161.891C222.598 161.91 222.592 161.94 222.583 161.981C222.567 162.062 222.541 162.185 222.506 162.348C222.434 162.674 222.324 163.156 222.168 163.772C221.857 165.003 221.366 166.765 220.652 168.866C219.222 173.075 216.907 178.615 213.37 183.983C206.317 194.685 194.492 204.617 175.002 202.149L175.001 202.149C149.402 198.917 123.301 184.094 104.248 166.569C94.7315 157.815 87.029 148.436 82.047 139.575C77.0423 130.673 74.8912 122.489 76.1382 116.035L76.1383 116.034C76.5662 113.815 78.0938 112.041 80.6751 110.538C83.2741 109.025 86.7694 107.893 90.7774 106.92C93.7496 106.199 96.9191 105.584 100.133 104.96C101.248 104.744 102.368 104.527 103.487 104.304C107.795 103.445 112.071 102.502 115.749 101.211L115.752 101.21C118.221 100.339 121.903 100.137 126.582 100.621C131.224 101.102 136.699 102.241 142.665 103.922C154.594 107.284 168.362 112.778 181.133 119.35C193.917 125.928 205.612 133.54 213.454 141.103C217.377 144.887 220.27 148.596 221.879 152.093C223.479 155.571 223.775 158.749 222.677 161.618Z"
            fill="#FDF9ED" stroke="#204D38" stroke-width="2.9" />
        <path d="M128 185C117.825 177.78 111.5 175.5 89 150" stroke="#204D38" stroke-width="2.9"
            stroke-linejoin="round" />
        <path
            d="M35.2854 46.1937C30.4567 32.9895 33.5321 25.9778 47.3928 25.3535C53.9327 25.0559 65.7421 38.6503 79.5 53.5C104.82 80.8197 128.079 113.799 128.079 113.799L107.505 153.197C107.505 153.197 61.9278 111.497 44.8538 75.0079C39.9006 64.415 36.3881 49.1827 35.2665 46.1669L35.2854 46.1937Z"
            fill="#FDF9ED" />
        <path
            d="M110.448 94.8451C110.448 94.8451 95.2288 75.4435 85.7426 63.7734C81.9864 59.1525 78.7395 54.137 75.4931 49.1448C69.103 39.3188 56.5585 23.8143 41.8273 25.4451C20.1601 27.8395 51.3587 95.0632 76 122.5"
            stroke="#204D38" stroke-width="2.9" stroke-linejoin="round" />
        <path
            d="M170.488 122.86C188.577 137.405 179.999 162.149 158.427 157.367C148.31 155.115 137.626 151.261 127.152 144.974C113.721 136.905 105.059 108.554 105.059 108.554C105.059 108.554 75.572 67.604 97.2474 59.6161C108.196 55.5944 123.84 79.0701 144.211 101.722L170.469 122.834L170.488 122.86Z"
            fill="#FDF9ED" />
        <path
            d="M147.809 29.999C144.331 17.5003 138.237 13.8987 127.534 20.8998C122.48 24.1917 122.374 43.5314 120.039 62.0598C115.76 96.1293 114.649 130.541 114.649 130.541L118.779 132.612C135.284 140.944 154.957 130.061 156.773 111.658C158.507 94.1102 159.254 73.4324 156.13 56.7579C154.158 46.1637 148.591 32.8557 147.786 30.0024L147.809 29.999Z"
            fill="#FDF9ED" />
        <path
            d="M117.658 106.853C117.658 106.853 119.164 71.3275 120.039 62.0607C120.039 62.0607 114.439 27.7239 131.73 17.9725C149.237 8.09494 160.769 73.6966 157.081 107.49"
            stroke="#204D38" stroke-width="2.9" stroke-linejoin="round" />
        <path
            d="M118.869 58.0654C116.426 49.3222 112.181 46.8003 104.672 51.6803C101.133 53.9941 101.064 67.5194 99.416 80.51C96.434 104.382 95.6385 128.464 95.6385 128.464L98.5291 129.925C110.091 135.771 123.861 128.143 125.15 115.254C126.365 102.961 126.898 88.4755 124.691 76.7923C123.29 69.3677 119.402 60.0462 118.842 58.0459L118.869 58.0654Z"
            fill="#FDF9ED" />
        <path
            d="M97.7795 111.91C97.7795 111.91 98.8275 87.0177 99.442 80.5306C99.442 80.5306 95.5112 56.4825 107.62 49.644C119.883 42.7355 127.957 88.6682 125.37 112.364"
            stroke="#204D38" stroke-width="2.9" stroke-linejoin="round" />
        <path
            d="M165.062 21.5878C161.584 9.08914 155.49 5.48753 144.787 12.4887C139.733 15.7806 139.627 35.1203 137.292 53.6486C133.013 87.7182 131.902 122.13 131.902 122.13L136.032 124.201C152.537 132.533 172.21 121.65 174.026 103.247C175.76 85.6991 176.507 65.0213 173.383 48.3467C171.411 37.7525 165.844 24.4446 165.039 21.5913L165.062 21.5878Z"
            fill="#FDF9ED" />
        <path
            d="M134.915 98.4641C134.915 98.4641 136.421 62.9388 137.296 53.672C137.296 53.672 131.696 19.3352 148.987 9.58383C166.494 -0.29373 178.026 65.308 174.338 99.1011"
            stroke="#204D38" stroke-width="2.9" stroke-linejoin="round" />
        <path
            d="M126.732 229.372L134.93 225.247L111.002 169.921L24.6606 169.944L37.4058 247.114L57.8709 246.146C71.9204 245.481 85.8518 243.25 99.4061 239.493L103.288 238.417C111.379 236.175 119.231 233.145 126.732 229.372Z"
            fill="#FDF9ED" stroke="#204D38" stroke-width="2.9" />
        <path
            d="M21.5447 157.391L21.5884 157.514L21.6096 157.641L21.6097 157.642L21.6097 157.642L21.6103 157.646L21.6138 157.666C21.6171 157.685 21.6224 157.715 21.6298 157.756C21.6444 157.838 21.6674 157.962 21.6993 158.125C21.7632 158.452 21.863 158.937 22.0049 159.556C22.2886 160.794 22.74 162.566 23.4068 164.683C24.7424 168.923 26.9322 174.513 30.3488 179.959C37.1606 190.816 48.7602 201.01 68.301 198.978L68.3015 198.978C93.9664 196.319 120.393 182.084 139.833 164.989C149.543 156.45 157.453 147.247 162.632 138.499C167.835 129.711 170.168 121.577 169.066 115.096L169.066 115.096C168.688 112.868 167.2 111.06 164.653 109.5C162.088 107.93 158.619 106.719 154.634 105.657C151.679 104.869 148.524 104.184 145.325 103.488C144.215 103.247 143.1 103.005 141.986 102.757C137.699 101.802 133.445 100.764 129.796 99.3909L129.794 99.39C127.345 98.4638 123.668 98.1795 118.979 98.559C114.328 98.9355 108.828 99.9517 102.826 101.499C90.8251 104.593 76.9377 109.779 64.0235 116.063C51.0956 122.354 39.2325 129.702 31.2235 137.088C27.2168 140.783 24.2419 144.426 22.5549 147.887C20.8777 151.328 20.5109 154.499 21.5447 157.391Z"
            fill="#FDF9ED" stroke="#204D38" stroke-width="2.9" />
        <path d="M115.675 182.885C126.009 175.894 132.384 173.756 155.448 148.766" stroke="#204D38" stroke-width="2.9"
            stroke-linejoin="round" />
        <path
            d="M211.471 46.1865C216.594 33.0936 213.676 26.0149 199.833 25.0808C193.301 24.637 181.191 37.9639 167.104 52.5022C141.18 79.2488 117.189 111.7 117.189 111.7L136.877 151.548C136.877 151.548 183.375 110.878 201.261 74.7796C206.45 64.3001 210.302 49.1502 211.49 46.1602L211.471 46.1865Z"
            fill="#FDF9ED" />
        <path
            d="M135.238 93.1446C135.238 93.1446 150.888 74.0883 160.633 62.6331C164.491 58.0974 167.849 53.1558 171.207 48.2375C177.815 38.5568 190.703 23.3367 205.394 25.2965C227.002 28.1749 194.308 94.684 169.059 121.563"
            stroke="#204D38" stroke-width="2.9" stroke-linejoin="round" />
        <path
            d="M74.5868 119.81C56.1767 133.947 64.199 158.877 85.8727 154.578C96.0374 152.553 106.806 148.939 117.417 142.888C131.026 135.121 140.319 106.97 140.319 106.97C140.319 106.97 170.715 66.6905 149.223 58.2199C138.368 53.9543 122.202 77.0744 101.329 99.2647L74.6063 119.784L74.5868 119.81Z"
            fill="#FDF9ED" />
        <path
            d="M0.922081 29.0111C8.56521 -10.2468 51.0656 5.01628 61.9745 26.8339C61.9745 26.8339 74.9446 -18.8164 115.407 9.44003C154.155 36.4921 78.4188 106.6 58.8014 105.512C39.184 104.423 -6.72105 68.269 0.922081 29.0111Z"
            fill="#204D38" />
    </symbol> -->






    <symbol id="icon-panel" viewBox="0 0 398 305">
        <path
            d="M388.882 263.375C388.882 265.723 387.849 268.138 385.637 270.615C383.416 273.101 380.071 275.57 375.639 277.97C366.777 282.768 353.855 287.137 337.76 290.823C305.593 298.19 261.08 302.76 211.861 302.76C162.643 302.76 118.13 298.19 85.9632 290.823C69.8677 287.137 56.9457 282.768 48.0841 277.97C43.6524 275.57 40.3073 273.101 38.0863 270.615C35.8734 268.138 34.8408 265.723 34.8408 263.375C34.8408 261.026 35.8734 258.611 38.0863 256.134C40.3073 253.648 43.6524 251.179 48.0841 248.779C56.9457 243.981 69.8677 239.613 85.9632 235.926C118.13 228.559 162.643 223.989 211.861 223.989C261.08 223.989 305.593 228.559 337.76 235.926C353.855 239.613 366.777 243.981 375.639 248.779C380.071 251.179 383.416 253.648 385.637 256.134C387.849 258.611 388.882 261.026 388.882 263.375Z"
            stroke="#184023" fill="none" stroke-width="3" />
        <path
            d="M375.835 275.849C375.835 288.464 300.422 302.285 212.12 302.285C123.819 302.285 47.8401 288.814 47.8401 276.2C47.8401 263.585 123.819 254.604 212.12 254.604C300.422 254.604 375.835 263.235 375.835 275.849Z"
            fill="#183722" />
        <path d="M211 92.0002H191V298H211V92.0002Z" fill="#FDF9ED" stroke="#183722" stroke-width="3.37046"
            stroke-linecap="round" stroke-linejoin="round" />
        <path d="M245 92.0002H211V298H245V92.0002Z" fill="#FDF9ED" stroke="#183722" stroke-width="3.37046"
            stroke-linecap="round" stroke-linejoin="round" />
        <path d="M395.589 170.389H94.4714L10.1424 2.33789H311.226L395.589 170.389Z" fill="#FDF9ED" stroke="#183722"
            stroke-width="3.37046" stroke-linecap="round" stroke-linejoin="round" />
        <path d="M377.086 159.638H102.191L28.6476 13.0898H303.509L377.086 159.638Z" fill="#FDF9ED" stroke="#183722"
            stroke-width="3.37046" stroke-linecap="round" stroke-linejoin="round" />
        <path d="M60.7344 13.0898L134.312 159.638" stroke="#183722" stroke-width="3.37046" stroke-linecap="round"
            stroke-linejoin="round" />
        <path d="M96.2246 13.0898L169.802 159.638" stroke="#183722" stroke-width="3.37046" stroke-linecap="round"
            stroke-linejoin="round" />
        <path d="M131.716 13.0898L205.293 159.638" stroke="#183722" stroke-width="3.37046" stroke-linecap="round"
            stroke-linejoin="round" />
        <path d="M167.207 13.0898L240.784 159.638" stroke="#183722" stroke-width="3.37046" stroke-linecap="round"
            stroke-linejoin="round" />
        <path d="M202.699 13.0898L276.276 159.638" stroke="#183722" stroke-width="3.37046" stroke-linecap="round"
            stroke-linejoin="round" />
        <path d="M238.188 13.0898L311.766 159.638" stroke="#183722" stroke-width="3.37046" stroke-linecap="round"
            stroke-linejoin="round" />
        <path d="M273.681 13.0898L347.258 159.638" stroke="#183722" stroke-width="3.37046" stroke-linecap="round"
            stroke-linejoin="round" />
        <path d="M95.6518 142.111H368.255" stroke="#183722" stroke-width="3.37046" stroke-linecap="round"
            stroke-linejoin="round" />
        <path d="M81.6651 114.237H354.268" stroke="#183722" stroke-width="3.37046" stroke-linecap="round"
            stroke-linejoin="round" />
        <path d="M67.6769 86.3635H340.28" stroke="#183722" stroke-width="3.37046" stroke-linecap="round"
            stroke-linejoin="round" />
        <path d="M53.6892 58.4897H326.326" stroke="#183722" stroke-width="3.37046" stroke-linecap="round"
            stroke-linejoin="round" />
        <path d="M39.7016 30.6497H312.338" stroke="#183722" stroke-width="3.37046" stroke-linecap="round"
            stroke-linejoin="round" />
        <path d="M10.1423 2.33789L2.08691 15.7523L84.7307 183.298L94.4713 170.389L10.1423 2.33789Z" fill="#183722"
            stroke="#183722" stroke-width="3.37046" stroke-linecap="round" stroke-linejoin="round" />
        <path d="M84.7307 183.299H384.5L395.588 170.39H94.4713L84.7307 183.299Z" fill="#183722" stroke="#183722"
            stroke-width="3.37046" stroke-linecap="round" stroke-linejoin="round" />
    </symbol>
    <symbol id="icon-hand" viewBox="0 0 344 305">
        <path
            d="M342.423 264.885C342.423 267.13 341.436 269.443 339.311 271.821C337.178 274.209 333.963 276.583 329.698 278.893C321.17 283.51 308.731 287.716 293.233 291.265C262.26 298.359 219.397 302.76 172 302.76C124.603 302.76 81.7393 298.359 50.7664 291.265C35.2678 287.716 22.8289 283.51 14.3012 278.893C10.0364 276.583 6.82088 274.209 4.68778 271.821C2.56283 269.443 1.57635 267.13 1.57635 264.885C1.57635 262.641 2.56283 260.328 4.68778 257.949C6.82088 255.562 10.0364 253.187 14.3012 250.878C22.8289 246.26 35.2678 242.055 50.7664 238.505C81.7393 231.412 124.603 227.011 172 227.011C219.397 227.011 262.26 231.412 293.233 238.505C308.731 242.055 321.17 246.26 329.698 250.878C333.963 253.187 337.178 255.562 339.311 257.949C341.436 260.328 342.423 262.641 342.423 264.885Z"
            stroke="#183722" fill="none" stroke-width="3" />
        <path
            d="M329.913 276.899C329.913 289.047 257.287 302.432 172.249 302.432C87.2106 302.432 14.0397 289.385 14.0397 277.237C14.0397 265.089 87.2106 256.439 172.249 256.439C257.287 256.439 329.913 264.751 329.913 276.899Z"
            fill="#183722" />
        <path
            d="M172.782 178.387C172.802 176.378 172.802 174.309 172.066 172.44C171.33 170.57 169.64 168.939 167.631 168.86C166.398 168.82 165.225 169.357 164.21 170.033C160.093 172.718 157.766 177.511 156.971 182.364C156.175 187.197 156.732 192.15 157.289 197.022C157.587 183.955 158.065 170.928 157.925 157.861C157.886 153.884 157.806 149.767 156.175 146.127C154.544 142.487 150.925 139.425 146.947 139.743C139.946 140.3 137.738 149.369 137.4 156.39C136.903 166.493 136.426 176.577 135.928 186.68C136.963 173.056 137.599 159.393 137.818 145.729C137.917 139.822 136.704 132.245 130.936 130.932C127.356 130.117 123.657 132.523 121.807 135.686C119.958 138.848 119.54 142.647 119.222 146.286C118.188 157.742 117.691 177.233 117.611 188.729C118.367 179.54 118.605 162.297 118.426 153.068C118.387 150.523 118.227 147.798 116.736 145.709C113.832 141.692 107.11 142.468 103.749 146.087C97.3245 153.009 99.6316 164.106 99.5719 172.579C99.4924 185.049 96.2505 214.544 95.5345 226.995C95.3953 223.255 97.1455 202.611 97.0063 198.872C96.8671 195.212 96.708 191.473 95.3356 188.072C93.9633 184.671 91.1192 181.628 87.4995 181.072C83.0444 180.375 78.7286 183.657 76.7397 187.734C74.7707 191.792 74.5917 196.465 74.4724 200.98C73.9354 219.198 72.6824 239.743 76.6403 257.583C79.4446 270.193 86.0874 282.484 97.0659 289.286C107.766 295.929 121.052 296.585 133.641 296.167C139.131 295.988 144.719 295.611 149.831 293.582C159.238 289.863 165.801 280.933 168.983 271.326C178.232 243.403 172.504 207.404 172.802 178.387H172.782Z"
            fill="#FDF9ED" stroke="#183722" stroke-width="3" stroke-miterlimit="10" />
        <path
            d="M95.1576 227.293C104.426 227.81 112.819 233.797 117.751 241.673C122.684 249.529 124.454 259.035 124.414 268.304"
            stroke="#183722" fill="none" stroke-width="3" stroke-linecap="round" stroke-linejoin="round" />
        <path d="M108.642 190.578C125.129 183.637 145.535 187.356 158.522 199.668" stroke="#183722" fill="none"
            stroke-width="3" stroke-linecap="round" stroke-linejoin="round" />
        <path
            d="M175.07 178.387C175.05 176.378 175.05 174.309 175.786 172.44C176.521 170.57 178.212 168.939 180.221 168.86C181.454 168.82 182.627 169.357 183.642 170.033C187.759 172.718 190.085 177.511 190.881 182.364C191.677 187.197 191.12 192.15 190.563 197.022C190.265 183.955 189.787 170.928 189.926 157.861C189.966 153.884 190.046 149.767 191.677 146.127C193.307 142.487 196.927 139.425 200.905 139.743C207.906 140.3 210.113 149.369 210.452 156.39C210.949 166.493 211.426 176.577 211.923 186.68C210.889 173.056 210.253 159.393 210.034 145.729C209.934 139.822 211.148 132.245 216.915 130.932C220.495 130.117 224.195 132.523 226.044 135.686C227.894 138.848 228.312 142.647 228.63 146.286C229.664 157.742 230.161 177.233 230.241 188.729C229.485 179.54 229.246 162.297 229.425 153.068C229.465 150.523 229.624 147.798 231.116 145.709C234.02 141.692 240.742 142.468 244.103 146.087C250.527 153.009 248.22 164.106 248.28 172.579C248.359 185.049 251.601 214.544 252.317 226.995C252.456 223.255 250.706 202.611 250.845 198.872C250.985 195.212 251.144 191.473 252.516 188.072C253.888 184.671 256.733 181.628 260.352 181.072C264.807 180.375 269.123 183.657 271.112 187.734C273.101 191.811 273.26 196.465 273.379 200.98C273.916 219.198 275.169 239.743 271.211 257.583C268.407 270.193 261.764 282.484 250.786 289.286C240.086 295.929 226.8 296.585 214.21 296.167C208.721 295.988 203.133 295.611 198.021 293.582C188.614 289.863 182.05 280.933 178.868 271.326C169.62 243.403 175.348 207.404 175.05 178.387H175.07Z"
            fill="#FDF9ED" stroke="#183722" stroke-width="3" stroke-miterlimit="10" />
        <path d="M252.674 227.293C243.406 227.81 235.013 233.797 230.081 241.673C225.148 249.529 223.378 259.035 223.418
        268.304" stroke="#183722" fill="none" stroke-width="3" stroke-linecap="round" stroke-linejoin="round" />
        <path d="M239.191 190.578C222.703 183.637 202.297 187.356 189.31 199.668" stroke="#183722" fill="none"
            stroke-width="3" stroke-linecap="round" stroke-linejoin="round" />
        <path
            d="M222.682 212.502C222.597 212.903 222.471 213.326 222.302 213.706C221.52 215.629 219.935 217.109 218.392 218.504C200.872 234.312 173.673 233.825 151.588 230.74C139.606 229.07 121.579 226.302 116.169 213.579C113.358 206.965 116.633 199.378 120.628 193.397C132.505 175.581 149.095 158.526 171.454 158.526C197.279 158.526 212.601 181.816 221.329 204.26C222.344 206.88 223.253 209.797 222.682 212.502Z"
            fill="#183722" stroke="#183722" stroke-width="1.98887" stroke-linecap="round" stroke-linejoin="round" />
        <path d="M170.926 69.6271V2.33765C170.926 2.33765 129.187 40.1246 170.926 69.6271Z" stroke="#183722" fill="none"
            stroke-width="3" stroke-linecap="round" stroke-linejoin="round" />
        <path d="M170.926 69.6271V2.33765C170.926 2.33765 212.665 40.1246 170.926 69.6271Z" stroke="#183722" fill="none"
            stroke-width="3" stroke-linecap="round" stroke-linejoin="round" />
        <path d="M164.46 115.191L101.355 52.0859C101.355 52.0859 97.635 126.666 164.46 115.191Z" stroke="#183722"
            fill="none" stroke-width="3" stroke-linecap="round" stroke-linejoin="round" />
        <path d="M164.46 115.191L101.355 52.0859C101.355 52.0859 175.935 48.3664 164.46 115.191Z" stroke="#183722"
            fill="none" stroke-width="3" stroke-linecap="round" stroke-linejoin="round" />
        <path d="M178.302 125.695L241.407 62.5898C241.407 62.5898 245.127 137.17 178.302 125.695Z" stroke="#183722"
            fill="none" stroke-width="3" stroke-linecap="round" stroke-linejoin="round" />
        <path d="M178.302 125.695L241.407 62.5898C241.407 62.5898 166.827 58.8703 178.302 125.695Z" stroke="#183722"
            fill="none" stroke-width="3" stroke-linecap="round" stroke-linejoin="round" />
        <path d="M123.206 73.9382L171.158 121.89" stroke="#183722" fill="none" stroke-width="3" stroke-linecap="round"
            stroke-linejoin="round" />
        <path d="M206.093 97.925L171.16 132.838" stroke="#183722" fill="none" stroke-width="3" stroke-linecap="round"
            stroke-linejoin="round" />
        <path d="M171 176L171 70" stroke="rgba(24,55,34,0.989)" fill="none" stroke-width="3" stroke-linecap="round"
            stroke-linejoin="round" />
    </symbol>
    <symbol id="icon-flower" viewBox="0 0 358 304">
        <path
            d="M356.295 262.374C356.295 264.723 355.263 267.138 353.05 269.615C350.829 272.101 347.484 274.57 343.052 276.97C334.191 281.768 321.269 286.136 305.173 289.823C273.006 297.19 228.494 301.76 179.275 301.76C130.056 301.76 85.5434 297.19 53.3765 289.823C37.281 286.136 24.359 281.768 15.4974 276.97C11.0657 274.57 7.72059 272.101 5.49961 269.615C3.28677 267.138 2.25415 264.723 2.25415 262.374C2.25415 260.026 3.28677 257.611 5.49961 255.134C7.72059 252.648 11.0657 250.179 15.4974 247.779C24.359 242.981 37.281 238.612 53.3765 234.926C85.5434 227.559 130.056 222.989 179.275 222.989C228.494 222.989 273.006 227.559 305.173 234.926C321.269 238.612 334.191 242.981 343.052 247.779C347.484 250.179 350.829 252.648 353.05 255.134C355.263 257.611 356.295 260.026 356.295 262.374Z"
            stroke="#183722" fill="none" stroke-width="3" />
        <path
            d="M343.248 274.849C343.248 287.463 267.835 301.285 179.534 301.285C91.2322 301.285 15.2534 287.814 15.2534 275.2C15.2534 262.585 91.2322 253.604 179.534 253.604C267.835 253.604 343.248 262.235 343.248 274.849Z"
            fill="#183722" />
        <path d="M179.4 85.8413L146.456 56.0505C146.456 56.0505 146.456 93.2193 179.4 85.8413Z" stroke="#183722"
            fill="none" stroke-width="2.5" stroke-linecap="round" stroke-linejoin="round" />
        <path d="M179.4 85.8415L146.456 56.0507C146.456 56.0507 183.432 52.3403 179.4 85.8415Z" stroke="#183722"
            fill="none" stroke-width="2.5" stroke-linecap="round" stroke-linejoin="round" />
        <path d="M181.437 126.592L148.494 96.801C148.494 96.801 148.494 133.97 181.437 126.592Z" stroke="#183722"
            fill="none" stroke-width="2.5" stroke-linecap="round" stroke-linejoin="round" />
        <path d="M181.438 126.592L148.494 96.8012C148.494 96.8012 185.47 93.0908 181.438 126.592Z" stroke="#183722"
            fill="none" stroke-width="2.5" stroke-linecap="round" stroke-linejoin="round" />
        <path d="M185.534 208.072L152.59 178.281C152.59 178.281 152.59 215.45 185.534 208.072Z" fill="none"
            stroke="#183722" stroke-width="2.5" stroke-linecap="round" stroke-linejoin="round" />
        <path d="M185.534 208.071L152.59 178.281C152.59 178.281 189.566 174.57 185.534 208.071Z" fill="none"
            stroke="#183722" stroke-width="2.5" stroke-linecap="round" stroke-linejoin="round" />
        <path d="M187.571 248.822L154.627 219.031C154.627 219.031 154.627 256.2 187.571 248.822Z" fill="none"
            stroke="#183722" stroke-width="2.5" stroke-linecap="round" stroke-linejoin="round" />
        <path d="M187.571 248.822L154.627 219.031C154.627 219.031 191.603 215.321 187.571 248.822Z" fill="none"
            stroke="#183722" stroke-width="2.5" stroke-linecap="round" stroke-linejoin="round" />
        <path d="M178.563 69.3913L208.354 36.4478C208.354 36.4478 212.064 73.4235 178.563 69.3913Z" stroke="#183722"
            fill="none" stroke-width="2.5" stroke-linecap="round" stroke-linejoin="round" />
        <path d="M178.563 69.3914L208.354 36.4478C208.354 36.4478 171.185 36.4478 178.563 69.3914Z" stroke="#183722"
            fill="none" stroke-width="2.5" stroke-linecap="round" stroke-linejoin="round" />
        <path d="M180.622 110.142L210.412 77.1982C210.412 77.1982 214.123 114.174 180.622 110.142Z" stroke="#183722"
            fill="none" stroke-width="2.5" stroke-linecap="round" stroke-linejoin="round" />
        <path d="M180.621 110.142L210.412 77.1982C210.412 77.1982 173.243 77.1982 180.621 110.142Z" stroke="#183722"
            fill="none" stroke-width="2.5" stroke-linecap="round" stroke-linejoin="round" />
        <path d="M177.383 45.6914L175.152 1.33765C175.152 1.33765 203.914 24.8657 177.383 45.6914Z" stroke="#183722"
            fill="none" stroke-width="2.5" stroke-linecap="round" stroke-linejoin="round" />
        <path d="M177.383 45.6914L175.152 1.33765C175.152 1.33765 148.879 27.6325 177.383 45.6914Z" stroke="#183722"
            fill="none" stroke-width="2.5" stroke-linecap="round" stroke-linejoin="round" />
        <path d="M186.755 232.372L216.546 199.428C216.546 199.428 220.257 236.404 186.755 232.372Z" fill="#FDF9ED"
            stroke="#183722" stroke-width="2.5" stroke-linecap="round" stroke-linejoin="round" />
        <path d="M186.756 232.372L216.546 199.428C216.546 199.428 179.378 199.428 186.756 232.372Z" fill="#FDF9ED"
            stroke="#183722" stroke-width="2.5" stroke-linecap="round" stroke-linejoin="round" />
        <path d="M177.383 45.6914L188.343 264.029" stroke="#183722" stroke-width="2.5" stroke-linecap="round"
            stroke-linejoin="round" />
        <path d="M247.993 165.016H110.508V187.53H247.993V165.016Z" fill="#FDF9ED" stroke="#183722"
            stroke-width="2.89235" stroke-linecap="round" stroke-linejoin="round" />
        <path
            d="M116.534 187.529H241.968V272.353C241.968 286.333 230.626 297.676 216.646 297.676H141.878C127.898 297.676 116.555 286.333 116.555 272.353V187.529H116.534Z"
            fill="#FDF9ED" stroke="#183722" stroke-width="2.89235" stroke-linecap="round" stroke-linejoin="round" />
        <path
            d="M180.194 259.188L173.269 252.262C171.146 250.14 167.694 250.14 165.571 252.262C164.134 253.699 163.684 255.757 164.199 257.601H153.971L161.283 244.929C162.784 242.313 161.904 238.99 159.289 237.489C156.673 235.988 153.349 236.867 151.848 239.483L139.819 260.325C138.854 262.018 138.854 264.098 139.819 265.771C140.784 267.465 142.585 268.494 144.537 268.494H164.22C163.706 270.338 164.134 272.375 165.592 273.833C167.715 275.956 171.167 275.956 173.29 273.833L180.216 266.907C181.202 265.921 181.802 264.549 181.802 263.048C181.802 261.547 181.202 260.174 180.216 259.188H180.194Z"
            fill="#183722" />
        <path
            d="M218.726 261.418L208.906 244.393C210.75 243.922 212.293 242.506 212.83 240.534C213.601 237.618 211.886 234.637 208.97 233.865L199.493 231.335C199.171 231.249 198.828 231.185 198.506 231.164H198.464C198.12 231.142 197.799 231.164 197.477 231.185C197.456 231.185 197.434 231.185 197.413 231.185C197.07 231.228 196.748 231.314 196.427 231.4C196.427 231.4 196.384 231.4 196.362 231.4C195.676 231.635 195.033 232 194.497 232.472C194.497 232.472 194.475 232.493 194.454 232.515C194.197 232.729 193.982 232.986 193.768 233.244C193.768 233.244 193.746 233.286 193.725 233.308C193.532 233.565 193.36 233.844 193.21 234.166C193.21 234.166 193.21 234.187 193.21 234.208C193.06 234.509 192.953 234.83 192.846 235.152L190.316 244.629C189.544 247.545 191.259 250.526 194.175 251.298C196.148 251.834 198.163 251.19 199.493 249.839L204.596 258.695H189.951C186.949 258.695 184.505 261.139 184.505 264.141C184.505 267.143 186.949 269.587 189.951 269.587H214.03C215.981 269.587 217.783 268.558 218.747 266.864C219.712 265.17 219.712 263.091 218.747 261.418H218.726Z"
            fill="#183722" />
        <path
            d="M157.616 232.707C157.702 233.029 157.83 233.351 157.959 233.651C157.959 233.651 157.959 233.694 157.98 233.694C158.13 233.994 158.302 234.273 158.495 234.53C158.495 234.53 158.516 234.573 158.538 234.594C158.752 234.852 158.967 235.109 159.224 235.323C159.224 235.323 159.245 235.345 159.267 235.366C159.803 235.838 160.446 236.202 161.132 236.438C161.154 236.438 161.175 236.438 161.197 236.438C161.518 236.546 161.84 236.61 162.162 236.653C162.183 236.653 162.204 236.653 162.247 236.653C162.569 236.696 162.891 236.696 163.234 236.674C163.234 236.674 163.277 236.674 163.298 236.674C163.62 236.653 163.963 236.588 164.284 236.503L173.74 233.973C176.656 233.201 178.372 230.199 177.6 227.304C177.064 225.332 175.52 223.895 173.676 223.445L178.779 214.589L186.091 227.261C187.592 229.877 190.936 230.756 193.531 229.255C196.147 227.754 197.026 224.41 195.525 221.815L183.496 200.974C182.531 199.28 180.73 198.25 178.779 198.25C176.828 198.25 175.027 199.28 174.062 200.974L164.241 217.998C162.912 216.626 160.896 216.004 158.924 216.54C156.008 217.312 154.292 220.314 155.064 223.209L157.594 232.686L157.616 232.707Z"
            fill="#183722" />
        <path
            d="M219.668 163.943H138.833C149.832 154.916 163.877 149.47 179.229 149.47C194.581 149.47 208.669 154.916 219.668 163.943Z"
            fill="#183722" />
    </symbol>
    <symbol id="icon-arrow" viewBox="0 0 11 38">
        <path
            d="M5.15083 36.8652C5.41866 37.133 5.85289 37.133 6.12072 36.8652L10.4852 32.5007C10.7531 32.2328 10.7531 31.7986 10.4852 31.5308C10.2174 31.263 9.78317 31.263 9.51534 31.5308L5.63577 35.4103L1.75621 31.5308C1.48838 31.263 1.05414 31.263 0.786316 31.5308C0.518488 31.7986 0.518488 32.2328 0.786316 32.5007L5.15083 36.8652ZM4.94996 0.118469V36.3802H6.32159V0.118469H4.94996Z"
            fill="#FDF9ED" />
    </symbol>
    <symbol id="icon-star" viewBox="0 0 25 25">
        <path
            d="M12.2412 0.650879L15.1625 9.80963L24.3213 12.731L15.1625 15.6523L12.2412 24.811L9.31988 15.6523L0.161133 12.731L9.31988 9.80963L12.2412 0.650879Z"
            fill="#204D38" />
    </symbol>
    <symbol id="icon-footer" viewBox="0 0 80 344">
        <path
            d="M39.9232 342.347C37.6787 342.347 35.3655 341.36 32.9872 339.235C30.5998 337.102 28.2251 333.887 25.9158 329.622C21.2983 321.094 17.0928 308.655 13.5432 293.156C6.44966 262.184 2.04852 219.32 2.04852 171.923C2.04853 124.526 6.44967 81.663 13.5432 50.69C17.0928 35.1915 21.2983 22.7526 25.9158 14.2248C28.2251 9.96002 30.5998 6.74452 32.9872 4.61143C35.3655 2.48647 37.6787 1.5 39.9232 1.5C42.1676 1.5 44.4809 2.48647 46.8591 4.61143C49.2465 6.74452 51.6213 9.96002 53.9305 14.2248C58.5481 22.7526 62.7536 35.1915 66.3031 50.69C73.3967 81.663 77.7978 124.526 77.7978 171.923C77.7978 219.32 73.3967 262.184 66.3031 293.156C62.7536 308.655 58.5481 321.094 53.9305 329.622C51.6212 333.887 49.2465 337.102 46.8591 339.235C44.4808 341.36 42.1676 342.347 39.9232 342.347Z"
            stroke="#183722" fill="none" stroke-width="3" />
        <path
            d="M27.91 328.393C27.1344 328.393 25.9734 327.784 24.5027 325.714C23.083 323.715 21.616 320.685 20.1528 316.666C17.233 308.648 14.4385 297.01 12.0124 282.653C7.16326 253.959 3.82176 214.625 3.82177 172.172C3.82177 129.718 7.07909 90.2461 11.8444 61.4141C14.2286 46.9886 16.9814 35.282 19.8705 27.2119C21.3184 23.1676 22.773 20.1159 24.1845 18.1029C25.6479 16.0159 26.8034 15.4079 27.5723 15.4079C28.3141 15.4079 29.4014 15.9836 30.7403 18.0571C32.0336 20.0602 33.3216 23.1042 34.5663 27.1498C37.0492 35.2203 39.257 46.9281 41.0938 61.361C44.7647 90.2051 46.9255 129.693 46.9255 172.172C46.9255 214.654 44.849 254.007 41.2623 282.715C39.4675 297.08 37.3018 308.719 34.8505 316.738C33.6217 320.758 32.3469 323.78 31.0636 325.767C29.7366 327.821 28.6547 328.393 27.91 328.393Z"
            fill="#183722" stroke="#183722" stroke-width="2.88913" />
    </symbol>
</svg>